<svg width="282" height="259" viewBox="0 0 282 259" fill="none" xmlns="http://www.w3.org/2000/svg">
<path d="M141 225.925C138.112 225.754 135.311 225.047 132.055 223.988C131.078 223.673 131.078 223.673 130.082 223.352C128.707 222.906 127.334 222.456 125.962 222.002C123.905 221.322 121.843 220.657 119.781 219.994C112.479 217.623 105.384 215.031 98.3602 211.907C95.0366 210.406 92.048 209.059 88.9998 207C87.2998 205.852 85.568 204.749 83.8123 203.688C75.3019 198.361 68.3458 192.786 61.9998 185L60.1053 182.867C41.2213 160.892 36.1998 132.414 38.2772 104.238C40.6315 84.5739 48.69 66.4203 60.9998 51L62.5428 48.9961C63.6356 47.6149 64.8081 46.2969 65.9998 45C66.9187 44 66.9999 43.9999 67.9998 43C70.1951 41.125 70.1952 41.1249 73.1248 39L76.0076 36.875C78.9677 35.0201 82.4998 32.5001 84.9998 33C85.4998 34.5 83.0229 38.5238 80.8748 41.3125C68.3998 58.7827 63.1212 79.8004 66.3133 101.091C68.7352 112.853 75.3432 123.67 85.2108 130.539C91.9518 134.444 98.3324 135.041 106 134C112.151 132.294 116.736 128.449 120 123C124.397 112.778 124.82 99.4885 121 89C114.722 73.8946 105.021 64.4591 91.9998 55C93.2958 52.1713 94.6918 50.0299 96.8201 47.7656L98.4412 46.0273L100.125 44.25L101.832 42.4258C103.217 40.9467 104.608 39.4728 106 38C109.053 39.0176 110.176 40.0757 112.344 42.3359C117.217 47.2328 122.404 51.9422 128 56C123.996 40.6533 123.996 40.6533 114 29C118.939 22.6312 124.114 16.6916 129.812 11L131.481 9.3291C134.187 6.6597 137.872 4.18128 141 2V225.925Z" fill="#FFB900"/>
<path d="M141 225.925C143.888 225.754 146.689 225.047 149.945 223.988C150.922 223.673 150.922 223.673 151.918 223.352C153.293 222.906 154.666 222.456 156.038 222.002C158.095 221.322 160.156 220.657 162.219 219.994C169.521 217.623 176.615 215.031 183.64 211.907C186.963 210.406 189.952 209.059 193 207C194.7 205.852 196.432 204.749 198.188 203.688C206.698 198.361 213.654 192.786 220 185L221.895 182.867C240.779 160.892 245.8 132.414 243.723 104.238C241.368 84.5739 233.31 66.4203 221 51L219.457 48.9961C218.364 47.6149 217.192 46.2969 216 45C215.081 44 215 43.9999 214 43C211.805 41.125 211.805 41.1249 208.875 39L205.992 36.875C203.032 35.0201 199.5 32.5001 197 33C196.5 34.5 198.977 38.5238 201.125 41.3125C213.6 58.7827 218.879 79.8004 215.687 101.091C213.265 112.853 206.657 123.67 196.789 130.539C190.048 134.444 183.667 135.041 176 134C169.849 132.294 165.263 128.449 162 123C157.603 112.778 157.18 99.4885 161 89C167.278 73.8946 176.979 64.4591 190 55C188.704 52.1713 187.308 50.0299 185.18 47.7656L183.559 46.0273L181.875 44.25L180.168 42.4258C178.783 40.9467 177.392 39.4728 176 38C172.947 39.0176 171.824 40.0757 169.656 42.3359C164.782 47.2328 159.596 51.9422 154 56C158.004 40.6533 158.004 40.6533 168 29C163.061 22.6312 157.886 16.6916 152.188 11L150.519 9.3291C147.813 6.6597 144.128 4.18128 141 2V225.925Z" fill="#FFB900"/>
<path d="M3.34668 2.51802C10.5907 -1.62747 22.4208 2.12909 30.1836 3.94184C45.9079 8.30346 60.4133 14.9426 74 24.0004C74.9997 25.5002 74.5 26.0005 74 27.0004C71.8752 28.9807 71.8749 28.981 69 31.1879C46.4907 49.1265 33.2398 74.4739 30 103C27.9514 134.85 33.3986 165.665 54.6641 190.415L59.3359 195.586C65.5323 202.104 72.4262 207.223 80 212L83.2383 214.059C96.9577 222.329 112.053 227.499 127.188 232.563C128.226 232.922 129.265 233.281 130.335 233.651C134.198 234.902 137.673 235.427 141 235.432V258.959C140.279 258.857 139.589 258.625 138.766 258.326C137.969 258.036 137.247 257.572 136.465 257.184C135.588 256.757 134.71 256.329 133.807 255.888C132.86 255.409 131.913 254.931 130.938 254.438C129.935 253.946 128.933 253.454 127.9 252.948C122.263 250.171 116.663 247.322 111.066 244.465C96.6498 237.124 82.2719 230.385 67 225C65.9497 224.626 64.8995 224.251 63.8174 223.865C48.2934 218.398 32.8242 214.367 16.6621 211.382C15.9806 211.251 15.2989 211.119 14.5967 210.984C12.7464 210.628 10.8928 210.29 9.03906 209.954C5.64973 208.89 4.22129 207.729 2 205C0.456348 201.913 0.847886 198.659 0.845703 195.27C0.841321 194.463 0.837523 193.655 0.833008 192.823C0.819594 190.102 0.812759 187.381 0.806641 184.661C0.798742 182.716 0.790839 180.771 0.782227 178.827C0.755987 172.429 0.74082 166.031 0.726562 159.633C0.721204 157.434 0.715357 155.233 0.709961 153.034C0.688331 143.887 0.670433 134.741 0.65918 125.595C0.642927 112.471 0.609674 99.3464 0.552734 86.2221C0.514094 77.0027 0.494553 67.7834 0.489258 58.5639C0.485597 53.0528 0.472771 47.5417 0.44043 42.0307C0.410451 36.8481 0.404203 31.6655 0.416016 26.4829C0.416236 24.5786 0.408125 22.6741 0.390625 20.77C0.368066 18.1743 0.375662 15.5805 0.391602 12.9848C0.377719 12.2274 0.363912 11.4693 0.349609 10.6889C0.407156 6.89907 0.701457 5.31524 3.34668 2.51802Z" fill="#FFB900"/>
<path d="M278.653 2.51802C271.409 -1.62747 259.579 2.12909 251.816 3.94184C236.092 8.30346 221.586 14.9426 208 24.0004C207 25.5002 207.5 26.0005 208 27.0004C210.124 28.9807 210.125 28.981 213 31.1879C235.509 49.1265 248.76 74.4739 252 103C254.048 134.85 248.601 165.665 227.336 190.415L222.664 195.586C216.467 202.104 209.573 207.223 202 212L198.761 214.059C185.042 222.329 169.947 227.499 154.812 232.563C153.773 232.922 152.735 233.281 151.665 233.651C147.802 234.902 144.327 235.427 141 235.432V258.959C141.721 258.857 142.41 258.625 143.234 258.326C144.031 258.036 144.753 257.572 145.535 257.184C146.412 256.757 147.289 256.329 148.193 255.888C149.14 255.409 150.087 254.931 151.062 254.438C152.064 253.946 153.067 253.454 154.099 252.948C159.737 250.171 165.336 247.322 170.933 244.465C185.35 237.124 199.728 230.385 215 225C216.05 224.626 217.1 224.251 218.182 223.865C233.706 218.398 249.175 214.367 265.337 211.382C266.019 211.251 266.701 211.119 267.403 210.984C269.253 210.628 271.107 210.29 272.961 209.954C276.35 208.89 277.778 207.729 280 205C281.543 201.913 281.152 198.659 281.154 195.27C281.158 194.463 281.162 193.655 281.167 192.823C281.18 190.102 281.187 187.381 281.193 184.661C281.201 182.716 281.209 180.771 281.217 178.827C281.244 172.429 281.259 166.031 281.273 159.633C281.278 157.434 281.284 155.233 281.29 153.034C281.311 143.887 281.329 134.741 281.34 125.595C281.357 112.471 281.39 99.3464 281.447 86.2221C281.486 77.0027 281.505 67.7834 281.51 58.5639C281.514 53.0528 281.527 47.5417 281.559 42.0307C281.589 36.8481 281.595 31.6655 281.584 26.4829C281.583 24.5786 281.591 22.6741 281.609 20.77C281.632 18.1743 281.624 15.5805 281.608 12.9848C281.622 12.2274 281.636 11.4693 281.65 10.6889C281.592 6.89907 281.298 5.31524 278.653 2.51802Z" fill="#FFB900"/>
</svg>
